<?xml version="1.0" encoding="UTF-8"?>
<svg
  xmlns="http://www.w3.org/2000/svg"
  width="100"
  height="100"
  viewBox="0 0 100 100"
  role="img"
  aria-labelledby="symbolTitle"
>
  <title id="symbolTitle">Brizom AIDT symbol logo</title>

  <!-- Top-right quadrant (dark gray) -->
  <path
    fill="#4A4A4A"
    d="M50 10
       A40 40 0 0 1 90 50
       L70 50
       A20 20 0 0 0 50 30
       Z"
  />

  <!-- Bottom-right quadrant (light gray) -->
  <path
    fill="#9E9E9E"
    d="M90 50
       A40 40 0 0 1 50 90
       L50 70
       A20 20 0 0 0 70 50
       Z"
  />

  <!-- Bottom-left quadrant (dark gray) -->
  <path
    fill="#4A4A4A"
    d="M50 90
       A40 40 0 0 1 10 50
       L30 50
       A20 20 0 0 0 50 70
       Z"
  />

  <!-- Top-left quadrant (light gray) -->
  <path
    fill="#9E9E9E"
    d="M10 50
       A40 40 0 0 1 50 10
       L50 30
       A20 20 0 0 0 30 50
       Z"
  />
</svg>
